<svg width="95" height="20" viewBox="0 0 95 20" fill="none" xmlns="http://www.w3.org/2000/svg">
<path d="M7.59834 5.26841C8.24761 4.52875 9.35547 4.4754 10.0728 5.14925C10.7901 5.82311 10.8453 6.96899 10.1961 7.70865L3.77341 15.0254C3.12413 15.7651 2.01628 15.8184 1.29894 15.1446C0.581601 14.4707 0.526423 13.3248 1.1757 12.5852L7.59834 5.26841Z" fill="#252525"/>
<path d="M14.2268 5.1456C14.876 4.40594 15.9839 4.35259 16.7012 5.02645C17.4186 5.7003 17.4737 6.84618 16.8245 7.58584L10.4018 14.9026C9.75255 15.6423 8.6447 15.6956 7.92736 15.0218C7.21002 14.3479 7.15484 13.202 7.80411 12.4624L14.2268 5.1456Z" fill="#252525"/>
<path d="M10.4397 1.52003C11.0889 0.780374 12.2006 0.722655 12.918 1.39651C13.6353 2.07036 13.6866 3.22061 13.0374 3.96027C12.3881 4.69993 11.2764 4.75765 10.5591 4.0838C9.84173 3.40994 9.79039 2.25969 10.4397 1.52003Z" fill="#FF7658"/>
<path d="M5.17623 16.0397C5.8255 15.3 6.9372 15.2423 7.65453 15.9162C8.37187 16.59 8.42322 17.7403 7.77394 18.4799C7.12467 19.2196 6.01298 19.2773 5.29564 18.6035C4.5783 17.9296 4.52696 16.7794 5.17623 16.0397Z" fill="#5707FF"/>
<path d="M30.0871 13.245V16H28.4341C27.2561 16 26.3378 15.715 25.6791 15.145C25.0204 14.5623 24.6911 13.6187 24.6911 12.314V8.09601H23.3991V5.39801H24.6911V2.81401H27.9401V5.39801H30.0681V8.09601H27.9401V12.352C27.9401 12.6687 28.0161 12.8967 28.1681 13.036C28.3201 13.1753 28.5734 13.245 28.9281 13.245H30.0871Z" fill="#252525"/>
<path d="M32.6758 4.29601C32.1058 4.29601 31.6372 4.13134 31.2698 3.80201C30.9152 3.46001 30.7378 3.04201 30.7378 2.54801C30.7378 2.04134 30.9152 1.62334 31.2698 1.29401C31.6372 0.952006 32.1058 0.781006 32.6758 0.781006C33.2332 0.781006 33.6892 0.952006 34.0438 1.29401C34.4112 1.62334 34.5948 2.04134 34.5948 2.54801C34.5948 3.04201 34.4112 3.46001 34.0438 3.80201C33.6892 4.13134 33.2332 4.29601 32.6758 4.29601ZM34.2908 5.39801V16H31.0418V5.39801H34.2908Z" fill="#252525"/>
<path d="M35.1444 10.699C35.1444 9.59701 35.366 8.63434 35.8094 7.81101C36.2654 6.98767 36.8924 6.35434 37.6904 5.91101C38.501 5.46767 39.4257 5.24601 40.4644 5.24601C41.7944 5.24601 42.9027 5.59434 43.7894 6.29101C44.6887 6.98767 45.2777 7.96934 45.5564 9.23601H42.0984C41.807 8.42534 41.2434 8.02001 40.4074 8.02001C39.812 8.02001 39.337 8.25434 38.9824 8.72301C38.6277 9.17901 38.4504 9.83767 38.4504 10.699C38.4504 11.5603 38.6277 12.2253 38.9824 12.694C39.337 13.15 39.812 13.378 40.4074 13.378C41.2434 13.378 41.807 12.9727 42.0984 12.162H45.5564C45.2777 13.4033 44.6887 14.3787 43.7894 15.088C42.89 15.7973 41.7817 16.152 40.4644 16.152C39.4257 16.152 38.501 15.9303 37.6904 15.487C36.8924 15.0437 36.2654 14.4103 35.8094 13.587C35.366 12.7637 35.1444 11.801 35.1444 10.699Z" fill="#252525"/>
<path d="M52.9183 16L49.6883 11.554V16H46.4393V1.94001H49.6883V9.71101L52.8993 5.39801H56.9083L52.5003 10.718L56.9463 16H52.9183Z" fill="#252525"/>
<path d="M67.3234 10.528C67.3234 10.832 67.3044 11.1487 67.2664 11.478H59.9134C59.964 12.1367 60.173 12.6433 60.5404 12.998C60.9204 13.34 61.3827 13.511 61.9274 13.511C62.738 13.511 63.3017 13.169 63.6184 12.485H67.0764C66.899 13.1817 66.576 13.8087 66.1074 14.366C65.6514 14.9233 65.075 15.3603 64.3784 15.677C63.6817 15.9937 62.9027 16.152 62.0414 16.152C61.0027 16.152 60.078 15.9303 59.2674 15.487C58.4567 15.0437 57.8234 14.4103 57.3674 13.587C56.9114 12.7637 56.6834 11.801 56.6834 10.699C56.6834 9.59701 56.905 8.63434 57.3484 7.81101C57.8044 6.98767 58.4377 6.35434 59.2484 5.91101C60.059 5.46767 60.99 5.24601 62.0414 5.24601C63.0674 5.24601 63.9794 5.46134 64.7774 5.89201C65.5754 6.32267 66.196 6.93701 66.6394 7.73501C67.0954 8.53301 67.3234 9.46401 67.3234 10.528ZM63.9984 9.67301C63.9984 9.11567 63.8084 8.67234 63.4284 8.34301C63.0484 8.01367 62.5734 7.84901 62.0034 7.84901C61.4587 7.84901 60.9964 8.00734 60.6164 8.32401C60.249 8.64067 60.021 9.09034 59.9324 9.67301H63.9984Z" fill="#252525"/>
<path d="M74.0914 13.245V16H72.4384C71.2604 16 70.342 15.715 69.6834 15.145C69.0247 14.5623 68.6954 13.6187 68.6954 12.314V8.09601H67.4034V5.39801H68.6954V2.81401H71.9444V5.39801H74.0724V8.09601H71.9444V12.352C71.9444 12.6687 72.0204 12.8967 72.1724 13.036C72.3244 13.1753 72.5777 13.245 72.9324 13.245H74.0914Z" fill="#252525"/>
<path d="M76.5661 16.152C75.9961 16.152 75.5275 15.9873 75.1601 15.658C74.8055 15.316 74.6281 14.898 74.6281 14.404C74.6281 13.8973 74.8055 13.473 75.1601 13.131C75.5275 12.789 75.9961 12.618 76.5661 12.618C77.1235 12.618 77.5795 12.789 77.9341 13.131C78.3015 13.473 78.4851 13.8973 78.4851 14.404C78.4851 14.898 78.3015 15.316 77.9341 15.658C77.5795 15.9873 77.1235 16.152 76.5661 16.152Z" fill="#252525"/>
<path d="M81.1874 4.29601C80.6174 4.29601 80.1488 4.13134 79.7814 3.80201C79.4268 3.46001 79.2494 3.04201 79.2494 2.54801C79.2494 2.04134 79.4268 1.62334 79.7814 1.29401C80.1488 0.952006 80.6174 0.781006 81.1874 0.781006C81.7448 0.781006 82.2008 0.952006 82.5554 1.29401C82.9228 1.62334 83.1064 2.04134 83.1064 2.54801C83.1064 3.04201 82.9228 3.46001 82.5554 3.80201C82.2008 4.13134 81.7448 4.29601 81.1874 4.29601ZM82.8024 5.39801V16H79.5534V5.39801H82.8024Z" fill="#252525"/>
<path d="M89.128 16.152C88.0893 16.152 87.152 15.9303 86.316 15.487C85.4926 15.0437 84.8403 14.4103 84.359 13.587C83.8903 12.7637 83.656 11.801 83.656 10.699C83.656 9.60967 83.8966 8.65334 84.378 7.83001C84.8593 6.99401 85.518 6.35434 86.354 5.91101C87.19 5.46767 88.1273 5.24601 89.166 5.24601C90.2046 5.24601 91.142 5.46767 91.978 5.91101C92.814 6.35434 93.4726 6.99401 93.954 7.83001C94.4353 8.65334 94.676 9.60967 94.676 10.699C94.676 11.7883 94.429 12.751 93.935 13.587C93.4536 14.4103 92.7886 15.0437 91.94 15.487C91.104 15.9303 90.1666 16.152 89.128 16.152ZM89.128 13.34C89.7486 13.34 90.2743 13.112 90.705 12.656C91.1483 12.2 91.37 11.5477 91.37 10.699C91.37 9.85034 91.1546 9.19801 90.724 8.74201C90.306 8.28601 89.7866 8.05801 89.166 8.05801C88.5326 8.05801 88.007 8.28601 87.589 8.74201C87.171 9.18534 86.962 9.83767 86.962 10.699C86.962 11.5477 87.1646 12.2 87.57 12.656C87.988 13.112 88.5073 13.34 89.128 13.34Z" fill="#252525"/>
</svg>
